<svg width="140" height="54" viewBox="0 0 140 54" fill="none" xmlns="http://www.w3.org/2000/svg">
<path d="M138.926 19.405C139.402 19.405 139.79 19.7944 139.79 20.2696V21.5955C139.79 22.0714 139.402 22.4608 138.926 22.4608H132.912C132.437 22.4608 132.048 22.8495 132.048 23.3254V24.3375C132.048 24.8127 132.437 25.2021 132.912 25.2021H138.173C138.648 25.2021 139.037 25.5908 139.037 26.0667V27.3926C139.037 27.8685 138.648 28.2572 138.173 28.2572H132.912C132.437 28.2572 132.048 28.6466 132.048 29.1225V30.1553C132.048 30.6305 132.437 31.0199 132.912 31.0199H139.135C139.611 31.0199 140 31.4086 140 31.8845V33.2104C140 33.6857 139.611 34.075 139.135 34.075H129.083C128.607 34.075 128.218 33.6857 128.218 33.2104V20.2696C128.218 19.7944 128.607 19.405 129.083 19.405H138.926Z" fill="#007BFF"/>
<path d="M110.505 19.405C110.981 19.405 111.497 19.773 111.652 20.2221L114.751 29.198C114.906 29.6471 115.16 29.6477 115.316 29.198L118.432 20.2221C118.588 19.7724 119.105 19.405 119.581 19.405H121.786C122.261 19.405 122.508 19.7676 122.335 20.2105L117.231 33.2695C117.058 33.7125 116.527 34.075 116.051 34.075H113.805C113.329 34.075 112.8 33.7125 112.627 33.2689L107.561 20.2111C107.389 19.7676 107.637 19.405 108.113 19.405H110.505Z" fill="#007BFF"/>
<path d="M100.816 19.405C101.292 19.405 101.681 19.7944 101.681 20.2696V33.2104C101.681 33.6857 101.292 34.075 100.816 34.075H98.7157C98.2404 34.075 97.8511 33.6857 97.8511 33.2104V20.2696C97.8511 19.7944 98.2404 19.405 98.7157 19.405H100.816Z" fill="#007BFF"/>
<path d="M80.2015 19.405C80.6774 19.405 81.0662 19.7944 81.0662 20.2696V24.5257C81.0662 25.001 81.4555 25.3904 81.9308 25.3904H86.1241C86.5994 25.3904 86.9887 25.001 86.9887 24.5257V20.2696C86.9887 19.7944 87.3781 19.405 87.8534 19.405H89.9537C90.4296 19.405 90.8183 19.7944 90.8183 20.2696V33.2104C90.8183 33.6857 90.4296 34.075 89.9537 34.075H87.8534C87.3781 34.075 86.9887 33.6857 86.9887 33.2104V29.3107C86.9887 28.8349 86.5994 28.4455 86.1241 28.4455H81.9308C81.4555 28.4455 81.0662 28.8349 81.0662 29.3107V33.2104C81.0662 33.6857 80.6774 34.075 80.2015 34.075H78.1012C77.6259 34.075 77.2366 33.6857 77.2366 33.2104V20.2696C77.2366 19.7944 77.6259 19.405 78.1012 19.405H80.2015Z" fill="#007BFF"/>
<path d="M20.2573 0.918709L3.85734 10.3867C1.73601 11.612 0 14.6187 0 17.0693V36.0053C0 38.456 1.73601 41.4627 3.85734 42.688L20.2573 52.156C22.3787 53.3813 25.852 53.3813 27.9747 52.156L44.3733 42.688C46.4947 41.4627 48.232 38.456 48.232 36.0053V17.0693C48.232 14.6187 46.4947 11.612 44.3733 10.3867L27.9747 0.918709C26.9134 0.305377 25.5133 8.24978e-06 24.1147 8.24978e-06C22.716 8.24978e-06 21.3173 0.305377 20.2573 0.918709ZM27.8907 21.4547C28.052 21.3813 28.184 19.6147 28.184 17.924C28.184 16.232 28.2427 14.7147 28.3147 14.5534C28.388 14.392 29.2427 14.26 29.8187 14.26C30.3933 14.26 30.956 14.2854 31.0666 14.3147C31.1786 14.3467 32.376 16.2907 33.6013 18.412L35.896 22.3853C37.12 24.5067 38.204 26.5174 38.1747 26.628C38.1467 26.74 37.12 28.568 35.896 30.6907L33.6013 34.6627C32.376 36.7854 31.3067 38.588 31.224 38.668C31.1427 38.7493 30.3933 38.816 29.8187 38.816C29.2427 38.816 28.6387 38.756 28.4787 38.684C28.316 38.612 28.184 36.844 28.184 35.152C28.184 33.46 28.124 31.944 28.052 31.7827C27.98 31.62 26.0307 31.488 24.1147 31.488C22.2013 31.488 20.5027 31.548 20.3413 31.62C20.1787 31.692 20.0467 33.46 20.0467 35.152C20.0467 36.844 19.988 38.36 19.9147 38.5214C19.8427 38.684 18.988 38.816 18.412 38.816C17.836 38.816 17.2747 38.7907 17.164 38.7587C17.0534 38.728 15.856 36.7854 14.6294 34.6627L12.336 30.6907C11.1107 28.568 10.084 26.74 10.056 26.628C10.0267 26.5174 11.1107 24.5067 12.336 22.3853L14.6294 18.412C15.856 16.2907 16.924 14.488 17.0067 14.4067C17.0893 14.3254 17.836 14.26 18.412 14.26C18.988 14.26 19.592 14.3187 19.7533 14.3907C19.9147 14.464 20.0467 16.232 20.0467 17.924C20.0467 19.6147 20.1053 21.1307 20.1787 21.2933C20.2507 21.4547 22.2013 21.5867 24.1147 21.5867C26.0307 21.5867 27.728 21.5267 27.8907 21.4547Z" fill="#007BFF"/>
</svg>
